<svg xmlns="http://www.w3.org/2000/svg" viewBox="0 0 204 125.5"><defs><style>.cls-1{fill:#231f20;}</style></defs><g id="Layer_2" data-name="Layer 2"><g id="Layer_1-2" data-name="Layer 1"><path class="cls-1" d="M4,27.93,2.69,26,1.35,27.93H0L1.94,25.2.12,22.6H1.47l1.22,1.82L3.9,22.6H5.27L3.45,25.19l1.94,2.74Z"/><path class="cls-1" d="M5.84,27.18l.62-.89a2.36,2.36,0,0,0,1.7.73c.63,0,.93-.28.93-.59,0-.93-3.07-.28-3.07-2.29,0-.89.76-1.62,2-1.62a3,3,0,0,1,2.08.74l-.63.85a2.31,2.31,0,0,0-1.56-.58c-.48,0-.75.2-.75.52,0,.84,3.07.28,3.07,2.27,0,1-.71,1.71-2.14,1.71A3.09,3.09,0,0,1,5.84,27.18Z"/><path class="cls-1" d="M.18,39.18l.63-.89A2.34,2.34,0,0,0,2.5,39c.63,0,.93-.28.93-.59,0-.93-3.07-.28-3.07-2.29,0-.89.77-1.62,2-1.62a3,3,0,0,1,2.08.74l-.63.85a2.29,2.29,0,0,0-1.55-.58c-.48,0-.75.2-.75.52,0,.84,3.06.28,3.06,2.27,0,1-.7,1.71-2.14,1.71A3.11,3.11,0,0,1,.18,39.18Z"/><path class="cls-1" d="M5.19,51.93V48.08l-1.5,3.85h-.5l-1.5-3.85v3.85H.55V46.6H2.14l1.3,3.33L4.73,46.6h1.6v5.33Z"/><path class="cls-1" d="M.5,63.93V58.6H1.65v4.33H3.9v1Z"/><path class="cls-1" d="M4,75.93,2.69,74l-1.34,2H0L1.94,73.2.12,70.6H1.47l1.22,1.82L3.9,70.6H5.27L3.45,73.19l1.94,2.74Z"/><path class="cls-1" d="M6.16,75.93V70.6H7.3v4.33H9.56v1Z"/><path class="cls-1" d="M.4,87.93V87c2.18-1.62,2.82-2.16,2.82-2.82,0-.47-.42-.69-.86-.69a1.92,1.92,0,0,0-1.43.61l-.65-.75a2.71,2.71,0,0,1,2.05-.87c1.15,0,2,.64,2,1.7,0,.91-.75,1.7-2.13,2.71H4.41v1Z"/><path class="cls-1" d="M9.15,87.93,7.81,86l-1.34,2H5.12L7.06,85.2,5.24,82.6H6.59l1.22,1.82L9,82.6h1.37L8.57,85.19l1.94,2.74Z"/><path class="cls-1" d="M11.28,87.93V82.6h1.14v4.33h2.26v1Z"/><path class="cls-1" d="M.18,99.17l.6-.76A2.08,2.08,0,0,0,2.25,99c.64,0,1-.28,1-.68s-.32-.62-1.07-.62l-.66,0v-1h.66c.59,0,1-.17,1-.56s-.44-.63-1-.63a1.93,1.93,0,0,0-1.36.55l-.56-.71a2.6,2.6,0,0,1,2-.85c1.25,0,2,.56,2,1.44a1.31,1.31,0,0,1-1.17,1.22,1.34,1.34,0,0,1,1.25,1.28c0,.92-.82,1.57-2.1,1.57A2.7,2.7,0,0,1,.18,99.17Z"/><path class="cls-1" d="M9.05,99.93,7.71,98l-1.34,2H5L7,97.2,5.14,94.6H6.49l1.22,1.82L8.92,94.6h1.37L8.47,97.19l1.94,2.74Z"/><path class="cls-1" d="M11.18,99.93V94.6h1.14v4.33h2.25v1Z"/><path class="cls-1" d="M2.77,111.93v-1.1H.22v-.9l2.12-3.33H3.91v3.23H4.6v1H3.91v1.1Zm0-4.32-1.43,2.22H2.77Z"/><path class="cls-1" d="M9.13,111.93l-1.34-2-1.34,2H5.1L7,109.2l-1.81-2.6H6.57l1.22,1.82L9,106.6h1.36l-1.81,2.59,1.93,2.74Z"/><path class="cls-1" d="M11.26,111.93V106.6H12.4v4.33h2.25v1Z"/><path class="cls-1" d="M.42,123.23l.63-.79a1.93,1.93,0,0,0,1.41.58c.63,0,1-.36,1-.79s-.35-.79-1-.79a1.47,1.47,0,0,0-1.11.43l-.8-.22V118.6H4.25v1H1.72v1.3a1.68,1.68,0,0,1,1.17-.45,1.67,1.67,0,0,1,1.72,1.73A1.88,1.88,0,0,1,2.47,124,2.66,2.66,0,0,1,.42,123.23Z"/><path class="cls-1" d="M9.21,123.93l-1.33-2-1.34,2H5.18l1.94-2.73L5.3,118.6H6.66l1.22,1.82,1.21-1.82h1.36l-1.81,2.59,1.93,2.74Z"/><path class="cls-1" d="M11.34,123.93V118.6h1.15v4.33h2.25v1Z"/><path class="cls-1" d="M36.31,27.93V22.6h3.5v.59H37v1.72h2.77v.59H37v1.84h2.83v.59Z"/><path class="cls-1" d="M44.07,27.93,42.9,26.35l-1.15,1.58h-.69l1.48-2-1.4-1.88h.69l1.07,1.47L44,24.07h.69L43.27,26l1.49,2Z"/><path class="cls-1" d="M46.3,27.12V24.6h-.64v-.53h.64V23h.6v1.06h.79v.53H46.9V27c0,.28.13.49.39.49a.58.58,0,0,0,.41-.17l.17.46a1,1,0,0,1-.71.25C46.58,28,46.3,27.7,46.3,27.12Z"/><path class="cls-1" d="M49.25,27.93V24.07h.6v.61a1.69,1.69,0,0,1,1.29-.7v.62l-.24,0a1.38,1.38,0,0,0-1,.62v2.73Z"/><path class="cls-1" d="M55.41,27.93v-.57A1.64,1.64,0,0,1,54.1,28c-1,0-1.71-.77-1.71-2s.71-2,1.71-2a1.63,1.63,0,0,1,1.31.68v-.58H56v3.86Zm0-1.05V25.13a1.45,1.45,0,0,0-1.15-.62c-.79,0-1.25.64-1.25,1.49s.46,1.49,1.25,1.49A1.44,1.44,0,0,0,55.41,26.88Z"/><path class="cls-1" d="M60.43,27.18l.4-.51a2.18,2.18,0,0,0,1.67.77c1,0,1.25-.52,1.25-.93,0-1.38-3.16-.61-3.16-2.51,0-.88.79-1.49,1.84-1.49a2.52,2.52,0,0,1,1.89.75l-.4.49a2,2,0,0,0-1.54-.64c-.64,0-1.1.34-1.1.85,0,1.2,3.16.51,3.16,2.5,0,.77-.53,1.57-2,1.57A2.66,2.66,0,0,1,60.43,27.18Z"/><path class="cls-1" d="M70.79,27.93V25.31c0-.49-.21-.8-.71-.8a1.32,1.32,0,0,0-1,.59v2.83h-.6V25.31c0-.49-.2-.8-.72-.8a1.35,1.35,0,0,0-1,.6v2.82h-.6V24.07h.6v.56A1.69,1.69,0,0,1,68,24a1,1,0,0,1,1,.72A1.61,1.61,0,0,1,70.31,24c.7,0,1.08.4,1.08,1.17v2.79Z"/><path class="cls-1" d="M76.11,27.93v-.57a1.63,1.63,0,0,1-1.3.67c-1,0-1.72-.77-1.72-2s.71-2,1.72-2a1.62,1.62,0,0,1,1.3.68v-.58h.6v3.86Zm0-1.05V25.13A1.45,1.45,0,0,0,75,24.51c-.78,0-1.25.64-1.25,1.49s.47,1.49,1.25,1.49A1.44,1.44,0,0,0,76.11,26.88Z"/><path class="cls-1" d="M78.63,27.12V22.6h.6V27c0,.28.13.49.39.49a.53.53,0,0,0,.4-.17l.19.46a1,1,0,0,1-.72.25A.8.8,0,0,1,78.63,27.12Z"/><path class="cls-1" d="M81.5,27.12V22.6h.6V27c0,.28.13.49.4.49a.57.57,0,0,0,.4-.17l.18.46a1,1,0,0,1-.72.25A.8.8,0,0,1,81.5,27.12Z"/><path class="cls-1" d="M36,39.18l.4-.51a2.21,2.21,0,0,0,1.67.77c1,0,1.26-.52,1.26-.93,0-1.38-3.16-.61-3.16-2.51,0-.88.79-1.49,1.84-1.49a2.52,2.52,0,0,1,1.89.75l-.4.49a2,2,0,0,0-1.55-.64c-.63,0-1.09.34-1.09.85,0,1.2,3.16.51,3.16,2.5,0,.77-.53,1.57-2,1.57A2.68,2.68,0,0,1,36,39.18Z"/><path class="cls-1" d="M46.36,39.93V37.31c0-.49-.21-.8-.71-.8a1.34,1.34,0,0,0-1,.59v2.83H44V37.31c0-.49-.2-.8-.71-.8a1.35,1.35,0,0,0-1,.6v2.82h-.6V36.07h.6v.56A1.69,1.69,0,0,1,43.55,36a1,1,0,0,1,1,.72,1.65,1.65,0,0,1,1.3-.72c.7,0,1.08.4,1.08,1.17v2.79Z"/><path class="cls-1" d="M51.68,39.93v-.57a1.63,1.63,0,0,1-1.3.67c-1,0-1.72-.77-1.72-2s.71-2,1.72-2a1.62,1.62,0,0,1,1.3.68v-.58h.6v3.86Zm0-1V37.13a1.45,1.45,0,0,0-1.15-.62c-.78,0-1.25.64-1.25,1.49s.47,1.49,1.25,1.49A1.44,1.44,0,0,0,51.68,38.88Z"/><path class="cls-1" d="M54.19,39.12V34.6h.6V39c0,.28.13.49.4.49a.53.53,0,0,0,.39-.17l.19.46a1,1,0,0,1-.72.25A.8.8,0,0,1,54.19,39.12Z"/><path class="cls-1" d="M57.07,39.12V34.6h.6V39c0,.28.12.49.39.49a.55.55,0,0,0,.4-.17l.18.46a1,1,0,0,1-.72.25C57.35,40,57.07,39.7,57.07,39.12Z"/><path class="cls-1" d="M40.87,51.93V47.45l-1.81,4.48h-.27L37,47.45v4.48h-.67V46.6h1l1.66,4.11,1.65-4.11h1v5.33Z"/><path class="cls-1" d="M43.26,50a1.94,1.94,0,0,1,1.9-2A1.88,1.88,0,0,1,47,50v.16H43.9a1.35,1.35,0,0,0,1.38,1.33,1.67,1.67,0,0,0,1.2-.49l.29.39a2.14,2.14,0,0,1-1.54.6A1.92,1.92,0,0,1,43.26,50Zm1.89-1.53a1.28,1.28,0,0,0-1.26,1.28h2.53A1.24,1.24,0,0,0,45.15,48.47Z"/><path class="cls-1" d="M51.5,51.93v-.57a1.62,1.62,0,0,1-1.3.67c-1,0-1.72-.77-1.72-2s.71-2,1.72-2a1.62,1.62,0,0,1,1.3.68v-2h.6v5.33Zm0-1V49.13a1.44,1.44,0,0,0-1.15-.62c-.78,0-1.24.64-1.24,1.49s.46,1.49,1.24,1.49A1.43,1.43,0,0,0,51.5,50.88Z"/><path class="cls-1" d="M53.91,47.12a.41.41,0,0,1,.41-.41.41.41,0,0,1,0,.81A.41.41,0,0,1,53.91,47.12ZM54,51.93V48.07h.6v3.86Z"/><path class="cls-1" d="M59.14,51.93v-.54a1.9,1.9,0,0,1-1.37.64,1.09,1.09,0,0,1-1.23-1.23V48.07h.6v2.54c0,.68.34.88.87.88a1.47,1.47,0,0,0,1.13-.58V48.07h.6v3.86Z"/><path class="cls-1" d="M66.33,51.93V49.31c0-.49-.21-.8-.72-.8a1.34,1.34,0,0,0-1,.59v2.83H64V49.31c0-.49-.2-.8-.71-.8a1.37,1.37,0,0,0-1,.6v2.82h-.59V48.07h.59v.56A1.69,1.69,0,0,1,63.52,48a1,1,0,0,1,1,.72,1.65,1.65,0,0,1,1.3-.72c.7,0,1.08.4,1.08,1.17v2.79Z"/><path class="cls-1" d="M36.23,63.93V58.6h.66v4.74h2.48v.59Z"/><path class="cls-1" d="M43.58,63.93v-.57a1.62,1.62,0,0,1-1.3.67c-1,0-1.72-.77-1.72-2s.71-2,1.72-2a1.62,1.62,0,0,1,1.3.68v-.58h.6v3.86Zm0-1V61.13a1.44,1.44,0,0,0-1.15-.62c-.78,0-1.24.64-1.24,1.49s.46,1.49,1.24,1.49A1.43,1.43,0,0,0,43.58,62.88Z"/><path class="cls-1" d="M46.11,63.93V60.07h.6v.61A1.67,1.67,0,0,1,48,60v.62l-.23,0a1.37,1.37,0,0,0-1,.62v2.73Z"/><path class="cls-1" d="M49.46,64.91l.3-.43A1.48,1.48,0,0,0,51,65a1.1,1.1,0,0,0,1.24-1.12v-.59A1.63,1.63,0,0,1,51,64c-1,0-1.72-.75-1.72-2A1.77,1.77,0,0,1,51,60a1.62,1.62,0,0,1,1.3.68v-.58h.6v3.81c0,1.22-.9,1.62-1.84,1.62A2,2,0,0,1,49.46,64.91Zm2.8-2.09v-1.7a1.47,1.47,0,0,0-1.15-.61c-.78,0-1.24.61-1.24,1.47s.46,1.46,1.24,1.46A1.42,1.42,0,0,0,52.26,62.82Z"/><path class="cls-1" d="M54.56,62a1.94,1.94,0,0,1,1.9-2A1.88,1.88,0,0,1,58.32,62v.16H55.2a1.35,1.35,0,0,0,1.38,1.33,1.67,1.67,0,0,0,1.2-.49l.29.39a2.14,2.14,0,0,1-1.53.6A1.92,1.92,0,0,1,54.56,62Zm1.9-1.53a1.29,1.29,0,0,0-1.27,1.28h2.54A1.25,1.25,0,0,0,56.46,60.47Z"/><path class="cls-1" d="M36.31,75.93V70.6h3.5v.59H37v1.72h2.77v.59H37v1.84h2.83v.59Z"/><path class="cls-1" d="M44.07,75.93,42.9,74.35l-1.15,1.58h-.69l1.48-2-1.4-1.88h.69l1.07,1.47L44,72.07h.69L43.27,74l1.49,2Z"/><path class="cls-1" d="M46.3,75.12V72.6h-.64v-.53h.64V71h.6v1.06h.79v.53H46.9V75c0,.28.13.49.39.49a.58.58,0,0,0,.41-.17l.17.46a1,1,0,0,1-.71.25C46.58,76,46.3,75.7,46.3,75.12Z"/><path class="cls-1" d="M49.25,75.93V72.07h.6v.61a1.69,1.69,0,0,1,1.29-.7v.62l-.24,0a1.38,1.38,0,0,0-1,.62v2.73Z"/><path class="cls-1" d="M55.41,75.93v-.57A1.64,1.64,0,0,1,54.1,76c-1,0-1.71-.77-1.71-2s.71-2,1.71-2a1.63,1.63,0,0,1,1.31.68v-.58H56v3.86Zm0-1.05V73.13a1.45,1.45,0,0,0-1.15-.62c-.79,0-1.25.64-1.25,1.49s.46,1.49,1.25,1.49A1.44,1.44,0,0,0,55.41,74.88Z"/><path class="cls-1" d="M60.66,75.93V70.6h.66v4.74H63.8v.59Z"/><path class="cls-1" d="M68,75.93v-.57a1.64,1.64,0,0,1-1.31.67c-1,0-1.72-.77-1.72-2a1.79,1.79,0,0,1,1.72-2,1.65,1.65,0,0,1,1.31.68v-.58h.6v3.86Zm0-1.05V73.13a1.45,1.45,0,0,0-1.16-.62c-.78,0-1.24.64-1.24,1.49s.46,1.49,1.24,1.49A1.45,1.45,0,0,0,68,74.88Z"/><path class="cls-1" d="M70.54,75.93V72.07h.6v.61a1.68,1.68,0,0,1,1.28-.7v.62l-.23,0a1.38,1.38,0,0,0-1,.62v2.73Z"/><path class="cls-1" d="M73.89,76.91l.3-.43a1.49,1.49,0,0,0,1.26.52,1.1,1.1,0,0,0,1.25-1.12v-.59a1.65,1.65,0,0,1-1.31.69c-1,0-1.72-.75-1.72-2a1.77,1.77,0,0,1,1.72-2,1.65,1.65,0,0,1,1.31.68v-.58h.6v3.81c0,1.22-.91,1.62-1.85,1.62A2,2,0,0,1,73.89,76.91Zm2.81-2.09v-1.7a1.49,1.49,0,0,0-1.16-.61c-.78,0-1.24.61-1.24,1.47s.46,1.46,1.24,1.46A1.44,1.44,0,0,0,76.7,74.82Z"/><path class="cls-1" d="M79,74a1.94,1.94,0,0,1,1.91-2A1.88,1.88,0,0,1,82.75,74v.16H79.63A1.36,1.36,0,0,0,81,75.53a1.7,1.7,0,0,0,1.2-.49l.28.39A2.14,2.14,0,0,1,81,76,1.92,1.92,0,0,1,79,74Zm1.9-1.53a1.29,1.29,0,0,0-1.27,1.28h2.54A1.25,1.25,0,0,0,80.89,72.47Z"/><path class="cls-1" d="M36.31,87.93V82.6h1.83a2.67,2.67,0,1,1,0,5.33Zm3.87-2.66a2,2,0,0,0-2-2.08H37v4.15h1.16A2,2,0,0,0,40.18,85.27Z"/><path class="cls-1" d="M42.39,86a1.91,1.91,0,1,1,1.91,2A1.9,1.9,0,0,1,42.39,86Zm3.19,0a1.29,1.29,0,1,0-1.28,1.49A1.34,1.34,0,0,0,45.58,86Z"/><path class="cls-1" d="M50.51,87.93v-.54a1.9,1.9,0,0,1-1.37.64,1.09,1.09,0,0,1-1.23-1.23V84.07h.59v2.54c0,.68.35.88.88.88a1.47,1.47,0,0,0,1.13-.58V84.07h.6v3.86Z"/><path class="cls-1" d="M53,87.93V82.6h.59v2.05A1.65,1.65,0,0,1,54.93,84c1,0,1.72.79,1.72,2s-.71,2-1.72,2a1.64,1.64,0,0,1-1.31-.67v.57Zm1.75-.44c.78,0,1.24-.63,1.24-1.49s-.46-1.49-1.24-1.49a1.45,1.45,0,0,0-1.16.62v1.75A1.42,1.42,0,0,0,54.78,87.49Z"/><path class="cls-1" d="M58.35,87.12V82.6h.59V87c0,.28.13.49.4.49a.57.57,0,0,0,.4-.17l.18.46a1,1,0,0,1-.72.25C58.63,88,58.35,87.7,58.35,87.12Z"/><path class="cls-1" d="M61,86a1.94,1.94,0,0,1,1.91-2A1.88,1.88,0,0,1,64.75,86v.16H61.63A1.36,1.36,0,0,0,63,87.53a1.7,1.7,0,0,0,1.2-.49l.28.39A2.14,2.14,0,0,1,63,88,1.92,1.92,0,0,1,61,86Zm1.9-1.53a1.29,1.29,0,0,0-1.27,1.28h2.54A1.25,1.25,0,0,0,62.89,84.47Z"/><path class="cls-1" d="M69.26,87.93V82.6h3.49v.59H69.92v1.72H72.7v.59H69.92v1.84h2.83v.59Z"/><path class="cls-1" d="M77,87.93l-1.17-1.58-1.16,1.58H74l1.48-2-1.4-1.88h.7l1.07,1.47,1.08-1.47h.69L76.22,86l1.48,2Z"/><path class="cls-1" d="M79.24,87.12V84.6H78.6v-.53h.64V83h.61v1.06h.78v.53h-.78V87c0,.28.13.49.38.49a.56.56,0,0,0,.41-.17l.18.46a1,1,0,0,1-.72.25A.8.8,0,0,1,79.24,87.12Z"/><path class="cls-1" d="M82.19,87.93V84.07h.6v.61a1.69,1.69,0,0,1,1.29-.7v.62l-.23,0a1.4,1.4,0,0,0-1.06.62v2.73Z"/><path class="cls-1" d="M88.35,87.93v-.57a1.63,1.63,0,0,1-1.3.67c-1,0-1.72-.77-1.72-2s.71-2,1.72-2a1.62,1.62,0,0,1,1.3.68v-.58H89v3.86Zm0-1.05V85.13a1.45,1.45,0,0,0-1.15-.62c-.78,0-1.25.64-1.25,1.49s.47,1.49,1.25,1.49A1.44,1.44,0,0,0,88.35,86.88Z"/><path class="cls-1" d="M93.6,87.93V82.6h.66v4.74h2.48v.59Z"/><path class="cls-1" d="M101,87.93v-.57a1.63,1.63,0,0,1-1.3.67c-1,0-1.72-.77-1.72-2s.71-2,1.72-2a1.62,1.62,0,0,1,1.3.68v-.58h.6v3.86Zm0-1.05V85.13a1.45,1.45,0,0,0-1.15-.62c-.79,0-1.25.64-1.25,1.49s.46,1.49,1.25,1.49A1.44,1.44,0,0,0,101,86.88Z"/><path class="cls-1" d="M103.48,87.93V84.07h.6v.61a1.69,1.69,0,0,1,1.29-.7v.62l-.23,0a1.4,1.4,0,0,0-1.06.62v2.73Z"/><path class="cls-1" d="M106.83,88.91l.31-.43a1.47,1.47,0,0,0,1.25.52,1.1,1.1,0,0,0,1.25-1.12v-.59a1.65,1.65,0,0,1-1.3.69c-1,0-1.72-.75-1.72-2s.7-2,1.72-2a1.62,1.62,0,0,1,1.3.68v-.58h.6v3.81c0,1.22-.9,1.62-1.85,1.62A2,2,0,0,1,106.83,88.91Zm2.81-2.09v-1.7a1.49,1.49,0,0,0-1.15-.61c-.79,0-1.25.61-1.25,1.47s.46,1.46,1.25,1.46A1.44,1.44,0,0,0,109.64,86.82Z"/><path class="cls-1" d="M111.94,86a1.94,1.94,0,0,1,1.9-2A1.87,1.87,0,0,1,115.69,86v.16h-3.11A1.35,1.35,0,0,0,114,87.53a1.67,1.67,0,0,0,1.2-.49l.29.39a2.14,2.14,0,0,1-1.54.6A1.92,1.92,0,0,1,111.94,86Zm1.89-1.53a1.28,1.28,0,0,0-1.26,1.28h2.53A1.24,1.24,0,0,0,113.83,84.47Z"/><path class="cls-1" d="M37.63,99.93V95.19H36V94.6h4v.59H38.3v4.74Z"/><path class="cls-1" d="M40.89,99.93V96.07h.6v.61a1.69,1.69,0,0,1,1.29-.7v.62l-.24,0a1.4,1.4,0,0,0-1,.62v2.73Z"/><path class="cls-1" d="M44.15,95.12a.4.4,0,0,1,.4-.41.41.41,0,1,1-.4.41Zm.1,4.81V96.07h.6v3.86Z"/><path class="cls-1" d="M47.37,99.35v2.05h-.6V96.07h.6v.57a1.62,1.62,0,0,1,1.3-.67c1,0,1.72.77,1.72,2s-.7,2-1.72,2A1.63,1.63,0,0,1,47.37,99.35ZM49.76,98c0-.86-.46-1.49-1.24-1.49a1.44,1.44,0,0,0-1.15.61v1.75a1.45,1.45,0,0,0,1.15.62C49.3,99.49,49.76,98.85,49.76,98Z"/><path class="cls-1" d="M52.07,99.12V94.6h.6V99c0,.28.12.49.39.49a.55.55,0,0,0,.4-.17l.18.46a1,1,0,0,1-.72.25C52.35,100,52.07,99.7,52.07,99.12Z"/><path class="cls-1" d="M54.71,98a1.93,1.93,0,0,1,1.9-2A1.87,1.87,0,0,1,58.46,98v.16H55.35a1.35,1.35,0,0,0,1.38,1.33,1.67,1.67,0,0,0,1.2-.49l.29.39a2.18,2.18,0,0,1-1.54.6A1.92,1.92,0,0,1,54.71,98Zm1.89-1.53a1.28,1.28,0,0,0-1.26,1.28h2.53A1.25,1.25,0,0,0,56.6,96.47Z"/><path class="cls-1" d="M63,99.93V94.6h3.49v.59H63.63v1.72h2.78v.59H63.63v1.84h2.83v.59Z"/><path class="cls-1" d="M70.73,99.93l-1.17-1.58L68.4,99.93h-.69l1.48-2-1.4-1.88h.7l1.07,1.47,1.08-1.47h.69L69.93,98l1.49,2Z"/><path class="cls-1" d="M73,99.12V96.6h-.64v-.53H73V95h.61v1.06h.78v.53h-.78V99c0,.28.13.49.38.49a.56.56,0,0,0,.41-.17l.18.46a1,1,0,0,1-.71.25A.8.8,0,0,1,73,99.12Z"/><path class="cls-1" d="M75.9,99.93V96.07h.6v.61a1.7,1.7,0,0,1,1.29-.7v.62l-.23,0a1.4,1.4,0,0,0-1.06.62v2.73Z"/><path class="cls-1" d="M82.06,99.93v-.57a1.62,1.62,0,0,1-1.3.67c-1,0-1.72-.77-1.72-2s.71-2,1.72-2a1.62,1.62,0,0,1,1.3.68v-.58h.6v3.86Zm0-1.05V97.13a1.44,1.44,0,0,0-1.15-.62c-.78,0-1.25.64-1.25,1.49s.47,1.49,1.25,1.49A1.43,1.43,0,0,0,82.06,98.88Z"/><path class="cls-1" d="M87.31,99.93V94.6H88v4.74h2.47v.59Z"/><path class="cls-1" d="M94.67,99.93v-.57a1.63,1.63,0,0,1-1.3.67c-1,0-1.72-.77-1.72-2s.71-2,1.72-2a1.62,1.62,0,0,1,1.3.68v-.58h.6v3.86Zm0-1.05V97.13a1.45,1.45,0,0,0-1.15-.62c-.78,0-1.25.64-1.25,1.49s.47,1.49,1.25,1.49A1.44,1.44,0,0,0,94.67,98.88Z"/><path class="cls-1" d="M97.19,99.93V96.07h.6v.61a1.69,1.69,0,0,1,1.29-.7v.62l-.23,0a1.4,1.4,0,0,0-1.06.62v2.73Z"/><path class="cls-1" d="M100.54,100.91l.31-.43a1.47,1.47,0,0,0,1.25.52,1.1,1.1,0,0,0,1.25-1.12v-.59a1.65,1.65,0,0,1-1.3.69c-1,0-1.72-.75-1.72-2s.7-2,1.72-2a1.62,1.62,0,0,1,1.3.68v-.58h.6v3.81c0,1.22-.9,1.62-1.85,1.62A2,2,0,0,1,100.54,100.91Zm2.81-2.09v-1.7a1.49,1.49,0,0,0-1.15-.61c-.78,0-1.25.61-1.25,1.47a1.29,1.29,0,0,0,1.25,1.46A1.44,1.44,0,0,0,103.35,98.82Z"/><path class="cls-1" d="M105.65,98a1.94,1.94,0,0,1,1.9-2A1.88,1.88,0,0,1,109.41,98v.16h-3.12a1.35,1.35,0,0,0,1.38,1.33,1.67,1.67,0,0,0,1.2-.49l.29.39a2.14,2.14,0,0,1-1.54.6A1.92,1.92,0,0,1,105.65,98Zm1.89-1.53a1.28,1.28,0,0,0-1.26,1.28h2.53A1.24,1.24,0,0,0,107.54,96.47Z"/><path class="cls-1" d="M36.1,109.27a2.65,2.65,0,1,1,5.3,0,2.8,2.8,0,0,1-.74,2l.51.54-.46.4-.52-.55a2.71,2.71,0,0,1-1.45.4A2.61,2.61,0,0,1,36.1,109.27Zm3.66,1.89-.76-.82.46-.39.76.81a2.34,2.34,0,0,0,.49-1.49,2,2,0,1,0-2,2.17A1.9,1.9,0,0,0,39.76,111.16Z"/><path class="cls-1" d="M45.74,111.93v-.54a1.92,1.92,0,0,1-1.38.64,1.09,1.09,0,0,1-1.23-1.23v-2.73h.6v2.54c0,.68.34.88.87.88a1.5,1.5,0,0,0,1.14-.58v-2.84h.6v3.86Z"/><path class="cls-1" d="M51.06,111.93v-.57a1.64,1.64,0,0,1-1.31.67c-1,0-1.72-.77-1.72-2a1.79,1.79,0,0,1,1.72-2,1.65,1.65,0,0,1,1.31.68v-.58h.6v3.86Zm0-1.05v-1.75a1.45,1.45,0,0,0-1.16-.62c-.78,0-1.24.64-1.24,1.49s.46,1.49,1.24,1.49A1.45,1.45,0,0,0,51.06,110.88Z"/><path class="cls-1" d="M56.37,111.93v-.57a1.64,1.64,0,0,1-1.31.67c-1,0-1.71-.77-1.71-2s.71-2,1.71-2a1.63,1.63,0,0,1,1.31.68V106.6H57v5.33Zm0-1.05v-1.75a1.45,1.45,0,0,0-1.15-.62c-.79,0-1.25.64-1.25,1.49s.46,1.49,1.25,1.49A1.44,1.44,0,0,0,56.37,110.88Z"/><path class="cls-1" d="M58.89,111.93v-3.86h.6v.61a1.69,1.69,0,0,1,1.29-.7v.62l-.24,0a1.4,1.4,0,0,0-1,.62v2.73Z"/><path class="cls-1" d="M64.86,111.93v-.54a1.92,1.92,0,0,1-1.38.64,1.09,1.09,0,0,1-1.23-1.23v-2.73h.6v2.54c0,.68.34.88.87.88a1.5,1.5,0,0,0,1.14-.58v-2.84h.6v3.86Z"/><path class="cls-1" d="M68,111.35v2.05h-.6v-5.33H68v.57a1.62,1.62,0,0,1,1.3-.67c1,0,1.72.77,1.72,2s-.7,2-1.72,2A1.62,1.62,0,0,1,68,111.35ZM70.37,110c0-.86-.47-1.49-1.24-1.49a1.44,1.44,0,0,0-1.15.61v1.75a1.45,1.45,0,0,0,1.15.62C69.9,111.49,70.37,110.85,70.37,110Z"/><path class="cls-1" d="M72.67,111.12V106.6h.6V111c0,.28.13.49.4.49a.53.53,0,0,0,.39-.17l.19.46a1,1,0,0,1-.72.25A.8.8,0,0,1,72.67,111.12Z"/><path class="cls-1" d="M75.32,110a1.94,1.94,0,0,1,1.9-2A1.88,1.88,0,0,1,79.08,110v.16H76a1.35,1.35,0,0,0,1.38,1.33,1.67,1.67,0,0,0,1.2-.49l.29.39a2.14,2.14,0,0,1-1.53.6A1.92,1.92,0,0,1,75.32,110Zm1.9-1.53A1.29,1.29,0,0,0,76,109.75h2.54A1.25,1.25,0,0,0,77.22,108.47Z"/><path class="cls-1" d="M83.58,111.93V106.6h3.5v.59H84.25v1.72H87v.59H84.25v1.84h2.83v.59Z"/><path class="cls-1" d="M91.34,111.93l-1.16-1.58L89,111.93h-.69l1.48-2-1.4-1.88h.69l1.08,1.47,1.08-1.47h.68L90.54,110l1.49,2Z"/><path class="cls-1" d="M93.57,111.12V108.6h-.64v-.53h.64V107h.61v1.06H95v.53h-.78V111c0,.28.12.49.38.49a.56.56,0,0,0,.41-.17l.17.46a1,1,0,0,1-.71.25A.8.8,0,0,1,93.57,111.12Z"/><path class="cls-1" d="M96.52,111.93v-3.86h.6v.61a1.69,1.69,0,0,1,1.29-.7v.62l-.23,0a1.4,1.4,0,0,0-1.06.62v2.73Z"/><path class="cls-1" d="M102.68,111.93v-.57a1.63,1.63,0,0,1-1.3.67c-1,0-1.72-.77-1.72-2s.71-2,1.72-2a1.62,1.62,0,0,1,1.3.68v-.58h.6v3.86Zm0-1.05v-1.75a1.45,1.45,0,0,0-1.15-.62c-.79,0-1.25.64-1.25,1.49s.46,1.49,1.25,1.49A1.44,1.44,0,0,0,102.68,110.88Z"/><path class="cls-1" d="M107.93,111.93V106.6h.66v4.74h2.48v.59Z"/><path class="cls-1" d="M115.29,111.93v-.57A1.64,1.64,0,0,1,114,112c-1,0-1.71-.77-1.71-2s.71-2,1.71-2a1.63,1.63,0,0,1,1.31.68v-.58h.6v3.86Zm0-1.05v-1.75a1.45,1.45,0,0,0-1.15-.62c-.79,0-1.25.64-1.25,1.49s.46,1.49,1.25,1.49A1.44,1.44,0,0,0,115.29,110.88Z"/><path class="cls-1" d="M117.81,111.93v-3.86h.6v.61a1.69,1.69,0,0,1,1.29-.7v.62l-.24,0a1.38,1.38,0,0,0-1,.62v2.73Z"/><path class="cls-1" d="M121.16,112.91l.3-.43a1.49,1.49,0,0,0,1.26.52,1.1,1.1,0,0,0,1.25-1.12v-.59a1.65,1.65,0,0,1-1.31.69,2,2,0,0,1,0-4,1.65,1.65,0,0,1,1.31.68v-.58h.6v3.81c0,1.22-.91,1.62-1.85,1.62A2,2,0,0,1,121.16,112.91Zm2.81-2.09v-1.7a1.49,1.49,0,0,0-1.16-.61c-.78,0-1.24.61-1.24,1.47s.46,1.46,1.24,1.46A1.44,1.44,0,0,0,124,110.82Z"/><path class="cls-1" d="M126.26,110a1.94,1.94,0,0,1,1.91-2A1.88,1.88,0,0,1,130,110v.16H126.9a1.36,1.36,0,0,0,1.39,1.33,1.7,1.7,0,0,0,1.2-.49l.28.39a2.14,2.14,0,0,1-1.53.6A1.92,1.92,0,0,1,126.26,110Zm1.9-1.53a1.28,1.28,0,0,0-1.26,1.28h2.53A1.25,1.25,0,0,0,128.16,108.47Z"/><path class="cls-1" d="M36.1,121.27a2.65,2.65,0,1,1,5.3,0,2.8,2.8,0,0,1-.74,2l.51.54-.46.4-.52-.55a2.71,2.71,0,0,1-1.45.4A2.61,2.61,0,0,1,36.1,121.27Zm3.66,1.89-.76-.82.46-.39.76.81a2.34,2.34,0,0,0,.49-1.49,2,2,0,1,0-2,2.17A1.9,1.9,0,0,0,39.76,123.16Z"/><path class="cls-1" d="M45.74,123.93v-.54a1.92,1.92,0,0,1-1.38.64,1.09,1.09,0,0,1-1.23-1.23v-2.73h.6v2.54c0,.68.34.88.87.88a1.5,1.5,0,0,0,1.14-.58v-2.84h.6v3.86Z"/><path class="cls-1" d="M48.15,119.12a.41.41,0,0,1,.41-.41.41.41,0,0,1,0,.81A.41.41,0,0,1,48.15,119.12Zm.11,4.81v-3.86h.6v3.86Z"/><path class="cls-1" d="M53.39,123.93V121.4c0-.68-.35-.89-.87-.89a1.5,1.5,0,0,0-1.14.6v2.82h-.6v-3.86h.6v.56a1.88,1.88,0,0,1,1.38-.66A1.09,1.09,0,0,1,54,121.22v2.71Z"/><path class="cls-1" d="M56,123.12V120.6h-.64v-.53H56V119h.61v1.06h.78v.53h-.78V123c0,.28.13.49.38.49a.56.56,0,0,0,.41-.17l.18.46a1,1,0,0,1-.71.25A.8.8,0,0,1,56,123.12Z"/><path class="cls-1" d="M61.59,123.93v-.54a1.9,1.9,0,0,1-1.37.64A1.09,1.09,0,0,1,59,122.8v-2.73h.59v2.54c0,.68.35.88.88.88a1.47,1.47,0,0,0,1.13-.58v-2.84h.6v3.86Z"/><path class="cls-1" d="M64.71,123.35v2.05h-.6v-5.33h.6v.57A1.62,1.62,0,0,1,66,120c1,0,1.72.77,1.72,2S67,124,66,124A1.63,1.63,0,0,1,64.71,123.35ZM67.1,122c0-.86-.46-1.49-1.24-1.49a1.44,1.44,0,0,0-1.15.61v1.75a1.45,1.45,0,0,0,1.15.62C66.64,123.49,67.1,122.85,67.1,122Z"/><path class="cls-1" d="M69.41,123.12V118.6H70V123c0,.28.13.49.39.49a.53.53,0,0,0,.4-.17l.18.46a1,1,0,0,1-.72.25C69.7,124,69.41,123.7,69.41,123.12Z"/><path class="cls-1" d="M72.06,122a1.94,1.94,0,0,1,1.9-2A1.88,1.88,0,0,1,75.82,122v.16H72.7a1.35,1.35,0,0,0,1.38,1.33,1.67,1.67,0,0,0,1.2-.49l.29.39A2.14,2.14,0,0,1,74,124,1.92,1.92,0,0,1,72.06,122ZM74,120.47a1.28,1.28,0,0,0-1.26,1.28h2.53A1.24,1.24,0,0,0,74,120.47Z"/><path class="cls-1" d="M80.32,123.93V118.6h3.49v.59H81v1.72h2.78v.59H81v1.84h2.83v.59Z"/><path class="cls-1" d="M88.08,123.93l-1.17-1.58-1.16,1.58h-.69l1.48-2-1.39-1.88h.69l1.07,1.47L88,120.07h.69L87.28,122l1.49,2Z"/><path class="cls-1" d="M90.3,123.12V120.6h-.63v-.53h.63V119h.61v1.06h.79v.53h-.79V123c0,.28.13.49.39.49a.55.55,0,0,0,.4-.17l.18.46a1,1,0,0,1-.71.25A.8.8,0,0,1,90.3,123.12Z"/><path class="cls-1" d="M93.26,123.93v-3.86h.6v.61a1.68,1.68,0,0,1,1.28-.7v.62l-.23,0a1.38,1.38,0,0,0-1,.62v2.73Z"/><path class="cls-1" d="M99.42,123.93v-.57a1.64,1.64,0,0,1-1.31.67c-1,0-1.72-.77-1.72-2s.71-2,1.72-2a1.65,1.65,0,0,1,1.31.68v-.58h.6v3.86Zm0-1.05v-1.75a1.45,1.45,0,0,0-1.16-.62c-.78,0-1.24.64-1.24,1.49s.46,1.49,1.24,1.49A1.45,1.45,0,0,0,99.42,122.88Z"/><path class="cls-1" d="M104.66,123.93V118.6h.67v4.74h2.48v.59Z"/><path class="cls-1" d="M112,123.93v-.57a1.62,1.62,0,0,1-1.3.67c-1,0-1.72-.77-1.72-2s.71-2,1.72-2a1.62,1.62,0,0,1,1.3.68v-.58h.6v3.86Zm0-1.05v-1.75a1.44,1.44,0,0,0-1.15-.62c-.78,0-1.25.64-1.25,1.49s.47,1.49,1.25,1.49A1.43,1.43,0,0,0,112,122.88Z"/><path class="cls-1" d="M114.54,123.93v-3.86h.6v.61a1.7,1.7,0,0,1,1.29-.7v.62l-.23,0a1.4,1.4,0,0,0-1.06.62v2.73Z"/><path class="cls-1" d="M117.9,124.91l.3-.43a1.48,1.48,0,0,0,1.26.52,1.1,1.1,0,0,0,1.24-1.12v-.59a1.65,1.65,0,0,1-1.3.69c-1,0-1.72-.75-1.72-2s.7-2,1.72-2a1.62,1.62,0,0,1,1.3.68v-.58h.6v3.81c0,1.22-.9,1.62-1.84,1.62A2,2,0,0,1,117.9,124.91Zm2.8-2.09v-1.7a1.47,1.47,0,0,0-1.15-.61c-.78,0-1.25.61-1.25,1.47a1.29,1.29,0,0,0,1.25,1.46A1.42,1.42,0,0,0,120.7,122.82Z"/><path class="cls-1" d="M123,122a1.94,1.94,0,0,1,1.9-2,1.88,1.88,0,0,1,1.86,2.07v.16h-3.12a1.35,1.35,0,0,0,1.38,1.33,1.67,1.67,0,0,0,1.2-.49l.29.39a2.14,2.14,0,0,1-1.53.6A1.92,1.92,0,0,1,123,122Zm1.9-1.53a1.28,1.28,0,0,0-1.27,1.28h2.54A1.26,1.26,0,0,0,124.9,120.47Z"/><path class="cls-1" d="M156.31,27.15l.4-.42a1.83,1.83,0,0,0,1.48.71c.78,0,1.25-.4,1.25-1s-.54-1-1.33-1h-.55v-.61h.55c.67,0,1.24-.26,1.24-.88s-.54-.91-1.19-.91a1.81,1.81,0,0,0-1.41.65l-.36-.42a2.29,2.29,0,0,1,1.83-.82c1,0,1.8.52,1.8,1.41a1.28,1.28,0,0,1-1.15,1.24,1.36,1.36,0,0,1,1.23,1.32c0,.89-.72,1.54-1.89,1.54A2.27,2.27,0,0,1,156.31,27.15Z"/><path class="cls-1" d="M162.68,27.93V23.47l-.85.91-.4-.41,1.33-1.37h.58v5.33Z"/><path class="cls-1" d="M165.45,24.33l-.3-.25a1.23,1.23,0,0,0,.52-.74l-.12,0a.39.39,0,0,1-.38-.41.42.42,0,0,1,.42-.43c.28,0,.51.21.51.61A1.52,1.52,0,0,1,165.45,24.33Zm1.28,0-.3-.25a1.14,1.14,0,0,0,.51-.74s-.07,0-.1,0a.4.4,0,0,1-.39-.41.43.43,0,0,1,.43-.43c.27,0,.5.21.5.61A1.52,1.52,0,0,1,166.73,24.33Z"/><path class="cls-1" d="M168.77,26.26v-.53h1.92v.53Z"/><path class="cls-1" d="M174,27.15l.4-.42a1.83,1.83,0,0,0,1.48.71c.78,0,1.25-.4,1.25-1s-.54-1-1.33-1h-.55v-.61h.55c.67,0,1.24-.26,1.24-.88s-.54-.91-1.19-.91a1.81,1.81,0,0,0-1.41.65l-.36-.42a2.27,2.27,0,0,1,1.83-.82c1,0,1.8.52,1.8,1.41a1.28,1.28,0,0,1-1.15,1.24,1.36,1.36,0,0,1,1.23,1.32c0,.89-.72,1.54-1.89,1.54A2.25,2.25,0,0,1,174,27.15Z"/><path class="cls-1" d="M181.77,27.93V26.58h-2.54V26l2.29-3.43h.91V26h.75v.58h-.75v1.35Zm0-4.72L179.9,26h1.87Z"/><path class="cls-1" d="M184.92,24.33l-.3-.25a1.23,1.23,0,0,0,.52-.74l-.12,0a.39.39,0,0,1-.38-.41.42.42,0,0,1,.42-.43c.28,0,.51.21.51.61A1.52,1.52,0,0,1,184.92,24.33Zm1.28,0-.3-.25a1.19,1.19,0,0,0,.52-.74l-.11,0a.4.4,0,0,1-.39-.41.43.43,0,0,1,.43-.43c.27,0,.5.21.5.61A1.52,1.52,0,0,1,186.2,24.33Z"/><path class="cls-1" d="M156.31,39.15l.4-.42a1.83,1.83,0,0,0,1.48.71c.78,0,1.25-.4,1.25-1s-.54-.95-1.33-.95h-.55v-.61h.55c.67,0,1.24-.26,1.24-.88s-.54-.91-1.19-.91a1.81,1.81,0,0,0-1.41.65l-.36-.42a2.29,2.29,0,0,1,1.83-.82c1,0,1.8.52,1.8,1.41a1.28,1.28,0,0,1-1.15,1.24,1.36,1.36,0,0,1,1.23,1.32c0,.89-.72,1.54-1.89,1.54A2.27,2.27,0,0,1,156.31,39.15Z"/><path class="cls-1" d="M164.05,39.93V38.58h-2.54V38l2.29-3.43h.91V38h.75v.58h-.75v1.35Zm0-4.72L162.18,38h1.87Z"/><path class="cls-1" d="M167.2,36.33l-.3-.25a1.19,1.19,0,0,0,.52-.74l-.11,0a.4.4,0,0,1-.39-.41.43.43,0,0,1,.43-.43c.27,0,.5.21.5.61A1.52,1.52,0,0,1,167.2,36.33Zm1.28,0-.29-.25a1.21,1.21,0,0,0,.51-.74l-.11,0a.4.4,0,0,1-.39-.41.43.43,0,0,1,.43-.43c.27,0,.5.21.5.61A1.52,1.52,0,0,1,168.48,36.33Z"/><path class="cls-1" d="M170.52,38.26v-.53h1.92v.53Z"/><path class="cls-1" d="M175.79,39.15l.39-.42a1.83,1.83,0,0,0,1.48.71c.78,0,1.25-.4,1.25-1s-.54-.95-1.33-.95H177v-.61h.55c.68,0,1.24-.26,1.24-.88s-.54-.91-1.19-.91a1.78,1.78,0,0,0-1.4.65l-.37-.42a2.29,2.29,0,0,1,1.83-.82c1,0,1.8.52,1.8,1.41a1.28,1.28,0,0,1-1.15,1.24,1.37,1.37,0,0,1,1.24,1.32c0,.89-.72,1.54-1.9,1.54A2.23,2.23,0,0,1,175.79,39.15Z"/><path class="cls-1" d="M181.7,39.93l2.15-4.74H181V34.6h3.64v.45l-2.19,4.88Z"/><path class="cls-1" d="M186.33,36.33l-.3-.25a1.23,1.23,0,0,0,.52-.74l-.12,0a.39.39,0,0,1-.38-.41.42.42,0,0,1,.42-.43c.27,0,.51.21.51.61A1.52,1.52,0,0,1,186.33,36.33Zm1.28,0-.3-.25a1.14,1.14,0,0,0,.51-.74l-.1,0a.4.4,0,0,1-.39-.41.43.43,0,0,1,.43-.43c.26,0,.5.21.5.61A1.52,1.52,0,0,1,187.61,36.33Z"/><path class="cls-1" d="M156.31,51.15l.4-.42a1.83,1.83,0,0,0,1.48.71c.78,0,1.25-.4,1.25-1s-.54-.95-1.33-.95h-.55v-.61h.55c.67,0,1.24-.26,1.24-.88s-.54-.91-1.19-.91a1.81,1.81,0,0,0-1.41.65l-.36-.42a2.29,2.29,0,0,1,1.83-.82c1,0,1.8.52,1.8,1.41a1.28,1.28,0,0,1-1.15,1.24,1.36,1.36,0,0,1,1.23,1.32c0,.89-.72,1.54-1.89,1.54A2.27,2.27,0,0,1,156.31,51.15Z"/><path class="cls-1" d="M161.67,50.58a1.59,1.59,0,0,1,1.27-1.4,1.41,1.41,0,0,1-1.18-1.28c0-1,.94-1.38,1.82-1.38s1.84.42,1.84,1.38c0,.7-.58,1.1-1.2,1.28a1.59,1.59,0,0,1,1.28,1.4c0,.9-.87,1.45-1.92,1.45S161.67,51.49,161.67,50.58Zm3.15-.07c0-.7-.91-1-1.24-1s-1.23.33-1.23,1,.57.93,1.23.93S164.82,51.08,164.82,50.51ZM164.74,48c0-.55-.52-.88-1.16-.88s-1.15.33-1.15.88.83.86,1.15.92S164.74,48.64,164.74,48Z"/><path class="cls-1" d="M167.39,48.33l-.3-.25a1.15,1.15,0,0,0,.52-.74l-.11,0a.4.4,0,0,1-.39-.41.43.43,0,0,1,.43-.43c.27,0,.5.21.5.61A1.52,1.52,0,0,1,167.39,48.33Zm1.28,0-.29-.25a1.18,1.18,0,0,0,.51-.74l-.11,0a.4.4,0,0,1-.39-.41.43.43,0,0,1,.43-.43c.27,0,.5.21.5.61A1.52,1.52,0,0,1,168.67,48.33Z"/><path class="cls-1" d="M170.71,50.26v-.53h1.92v.53Z"/><path class="cls-1" d="M178.54,51.93V50.58H176V50l2.29-3.43h.91V50H180v.58h-.75v1.35Zm0-4.72L176.66,50h1.88Z"/><path class="cls-1" d="M182.35,51.93V47.47l-.86.91-.4-.41,1.34-1.37H183v5.33Z"/><path class="cls-1" d="M185.11,48.33l-.3-.25a1.19,1.19,0,0,0,.52-.74l-.11,0a.4.4,0,0,1-.39-.41.43.43,0,0,1,.43-.43c.27,0,.5.21.5.61A1.52,1.52,0,0,1,185.11,48.33Zm1.28,0-.29-.25a1.18,1.18,0,0,0,.51-.74l-.11,0a.4.4,0,0,1-.39-.41.43.43,0,0,1,.43-.43c.27,0,.5.21.5.61A1.52,1.52,0,0,1,186.39,48.33Z"/><path class="cls-1" d="M158.87,63.93V62.58h-2.53V62l2.28-3.43h.92V62h.75v.58h-.75v1.35Zm0-4.72L157,62h1.87Z"/><path class="cls-1" d="M161.7,63.93V63.4c1.92-1.51,3-2.4,3-3.32a1,1,0,0,0-1.11-1,1.77,1.77,0,0,0-1.45.67l-.41-.42a2.27,2.27,0,0,1,1.86-.84,1.62,1.62,0,0,1,1.79,1.56c0,1.09-1.11,2.08-2.6,3.26h2.62v.59Z"/><path class="cls-1" d="M167.45,60.33l-.3-.25a1.23,1.23,0,0,0,.52-.74l-.12,0a.39.39,0,0,1-.38-.41.42.42,0,0,1,.42-.43c.28,0,.51.21.51.61A1.52,1.52,0,0,1,167.45,60.33Zm1.28,0-.3-.25a1.14,1.14,0,0,0,.51-.74l-.1,0a.4.4,0,0,1-.39-.41.43.43,0,0,1,.43-.43c.27,0,.5.21.5.61A1.52,1.52,0,0,1,168.73,60.33Z"/><path class="cls-1" d="M170.77,62.26v-.53h1.92v.53Z"/><path class="cls-1" d="M178.59,63.93V62.58h-2.53V62l2.28-3.43h.92V62H180v.58h-.75v1.35Zm0-4.72L176.72,62h1.87Z"/><path class="cls-1" d="M181.51,63.17l.4-.45a1.77,1.77,0,0,0,1.48.72,1.16,1.16,0,0,0,1.23-1.15,1.13,1.13,0,0,0-1.23-1.15,1.69,1.69,0,0,0-1.23.5l-.49-.17V58.6h3.27v.59h-2.6V61a1.83,1.83,0,0,1,1.24-.48,1.64,1.64,0,0,1,1.71,1.71,1.76,1.76,0,0,1-1.9,1.76A2.18,2.18,0,0,1,181.51,63.17Z"/><path class="cls-1" d="M187.18,60.33l-.31-.25a1.15,1.15,0,0,0,.52-.74l-.11,0a.39.39,0,0,1-.38-.41.42.42,0,0,1,.42-.43c.27,0,.5.21.5.61A1.51,1.51,0,0,1,187.18,60.33Zm1.28,0-.3-.25a1.14,1.14,0,0,0,.51-.74l-.1,0a.39.39,0,0,1-.39-.41.43.43,0,0,1,.43-.43c.26,0,.49.21.49.61A1.54,1.54,0,0,1,188.46,60.33Z"/><path class="cls-1" d="M158.87,75.93V74.58h-2.53V74l2.28-3.43h.92V74h.75v.58h-.75v1.35Zm0-4.72L157,74h1.87Z"/><path class="cls-1" d="M161.67,73.27c0-1.44.68-2.75,2.18-2.75a1.81,1.81,0,0,1,1.47.64l-.34.49a1.35,1.35,0,0,0-1.13-.54c-1,0-1.5,1-1.5,2.09v.21a1.9,1.9,0,0,1,1.51-.83,1.61,1.61,0,0,1,1.74,1.7A1.75,1.75,0,0,1,163.74,76C162.24,76,161.67,74.72,161.67,73.27Zm3.26,1a1.1,1.1,0,0,0-1.23-1.15,1.61,1.61,0,0,0-1.33.79c.06.66.41,1.49,1.33,1.49A1.16,1.16,0,0,0,164.93,74.31Z"/><path class="cls-1" d="M167.47,72.33l-.3-.25a1.15,1.15,0,0,0,.52-.74l-.11,0a.4.4,0,0,1-.39-.41.43.43,0,0,1,.43-.43c.27,0,.5.21.5.61A1.52,1.52,0,0,1,167.47,72.33Zm1.28,0-.29-.25a1.18,1.18,0,0,0,.51-.74l-.11,0a.4.4,0,0,1-.39-.41.43.43,0,0,1,.43-.43c.27,0,.5.21.5.61A1.52,1.52,0,0,1,168.75,72.33Z"/><path class="cls-1" d="M170.79,74.26v-.53h1.92v.53Z"/><path class="cls-1" d="M178.62,75.93V74.58h-2.54V74l2.29-3.43h.91V74H180v.58h-.75v1.35Zm0-4.72L176.74,74h1.88Z"/><path class="cls-1" d="M181.67,75.38l.34-.5a1.37,1.37,0,0,0,1.14.55c1.08,0,1.51-1.08,1.51-2.1a1.62,1.62,0,0,0,0-.21,1.92,1.92,0,0,1-1.5.84,1.63,1.63,0,0,1-1.76-1.71,1.76,1.76,0,0,1,1.87-1.74c1.49,0,2.07,1.3,2.07,2.76S184.65,76,183.15,76A1.91,1.91,0,0,1,181.67,75.38Zm3-2.8c-.06-.66-.41-1.48-1.34-1.48a1.16,1.16,0,0,0-1.23,1.13,1.11,1.11,0,0,0,1.24,1.15A1.64,1.64,0,0,0,184.63,72.58Z"/><path class="cls-1" d="M187.21,72.33l-.31-.25a1.21,1.21,0,0,0,.53-.74l-.12,0a.39.39,0,0,1-.38-.41.42.42,0,0,1,.42-.43c.28,0,.51.21.51.61A1.52,1.52,0,0,1,187.21,72.33Zm1.28,0-.3-.25a1.14,1.14,0,0,0,.51-.74l-.1,0a.4.4,0,0,1-.39-.41.43.43,0,0,1,.43-.43c.26,0,.5.21.5.61A1.52,1.52,0,0,1,188.49,72.33Z"/><path class="cls-1" d="M156.61,87.17l.41-.45a1.74,1.74,0,0,0,1.47.72,1.15,1.15,0,0,0,1.23-1.15,1.12,1.12,0,0,0-1.22-1.15,1.68,1.68,0,0,0-1.23.5l-.49-.17V82.6H160v.59h-2.6V85a1.86,1.86,0,0,1,1.25-.48,1.63,1.63,0,0,1,1.7,1.71,1.76,1.76,0,0,1-1.9,1.76A2.18,2.18,0,0,1,156.61,87.17Z"/><path class="cls-1" d="M161.93,85.27c0-1.31.58-2.75,2-2.75s2,1.44,2,2.75S165.42,88,164,88,161.93,86.56,161.93,85.27Zm3.4,0c0-1.06-.35-2.16-1.36-2.16s-1.36,1.1-1.36,2.16.34,2.17,1.36,2.17S165.33,86.33,165.33,85.27Z"/><path class="cls-1" d="M167.9,84.33l-.31-.25a1.15,1.15,0,0,0,.52-.74l-.11,0a.39.39,0,0,1-.38-.41.42.42,0,0,1,.42-.43c.27,0,.51.21.51.61A1.52,1.52,0,0,1,167.9,84.33Zm1.28,0-.3-.25a1.14,1.14,0,0,0,.51-.74l-.1,0a.39.39,0,0,1-.39-.41.43.43,0,0,1,.43-.43c.26,0,.49.21.49.61A1.51,1.51,0,0,1,169.18,84.33Z"/><path class="cls-1" d="M171.22,86.26v-.53h1.92v.53Z"/><path class="cls-1" d="M176.78,87.17l.41-.45a1.74,1.74,0,0,0,1.47.72,1.16,1.16,0,0,0,1.23-1.15,1.13,1.13,0,0,0-1.23-1.15,1.69,1.69,0,0,0-1.23.5l-.48-.17V82.6h3.26v.59h-2.6V85a1.84,1.84,0,0,1,1.25-.48,1.63,1.63,0,0,1,1.7,1.71,1.76,1.76,0,0,1-1.9,1.76A2.18,2.18,0,0,1,176.78,87.17Z"/><path class="cls-1" d="M181.91,87.15l.4-.42a1.83,1.83,0,0,0,1.48.71c.78,0,1.25-.4,1.25-1s-.54-1-1.33-1h-.55v-.61h.55c.67,0,1.24-.26,1.24-.88s-.54-.91-1.19-.91a1.8,1.8,0,0,0-1.41.65l-.37-.42a2.31,2.31,0,0,1,1.84-.82c1,0,1.8.52,1.8,1.41a1.28,1.28,0,0,1-1.15,1.24,1.36,1.36,0,0,1,1.23,1.32c0,.89-.72,1.54-1.89,1.54A2.25,2.25,0,0,1,181.91,87.15Z"/><path class="cls-1" d="M187.62,84.33l-.31-.25a1.15,1.15,0,0,0,.52-.74l-.11,0a.39.39,0,0,1-.38-.41.42.42,0,0,1,.42-.43c.27,0,.51.21.51.61A1.55,1.55,0,0,1,187.62,84.33Zm1.28,0-.3-.25a1.14,1.14,0,0,0,.51-.74l-.1,0a.39.39,0,0,1-.39-.41.43.43,0,0,1,.43-.43c.26,0,.49.21.49.61A1.54,1.54,0,0,1,188.9,84.33Z"/><path class="cls-1" d="M156.61,99.17l.41-.45a1.74,1.74,0,0,0,1.47.72,1.15,1.15,0,0,0,1.23-1.15,1.12,1.12,0,0,0-1.22-1.15,1.68,1.68,0,0,0-1.23.5l-.49-.17V94.6H160v.59h-2.6V97a1.86,1.86,0,0,1,1.25-.48,1.63,1.63,0,0,1,1.7,1.71,1.76,1.76,0,0,1-1.9,1.76A2.18,2.18,0,0,1,156.61,99.17Z"/><path class="cls-1" d="M164.31,99.93V98.58h-2.53V98l2.28-3.43H165V98h.75v.58H165v1.35Zm0-4.72L162.44,98h1.87Z"/><path class="cls-1" d="M167.47,96.33l-.31-.25a1.15,1.15,0,0,0,.52-.74l-.11,0a.39.39,0,0,1-.38-.41.42.42,0,0,1,.42-.43c.27,0,.5.21.5.61A1.54,1.54,0,0,1,167.47,96.33Zm1.27,0-.29-.25a1.14,1.14,0,0,0,.51-.74l-.1,0a.39.39,0,0,1-.39-.41.43.43,0,0,1,.43-.43c.26,0,.49.21.49.61A1.52,1.52,0,0,1,168.74,96.33Z"/><path class="cls-1" d="M170.79,98.26v-.53h1.91v.53Z"/><path class="cls-1" d="M176.35,99.17l.4-.45a1.76,1.76,0,0,0,1.48.72,1.16,1.16,0,0,0,1.23-1.15,1.13,1.13,0,0,0-1.23-1.15,1.69,1.69,0,0,0-1.23.5l-.49-.17V94.6h3.27v.59h-2.6V97a1.83,1.83,0,0,1,1.24-.48,1.64,1.64,0,0,1,1.71,1.71,1.76,1.76,0,0,1-1.9,1.76A2.18,2.18,0,0,1,176.35,99.17Z"/><path class="cls-1" d="M182.22,99.93l2.15-4.74H181.5V94.6h3.64v.45L183,99.93Z"/><path class="cls-1" d="M186.85,96.33l-.3-.25a1.18,1.18,0,0,0,.51-.74l-.11,0a.39.39,0,0,1-.38-.41.42.42,0,0,1,.42-.43c.28,0,.51.21.51.61A1.52,1.52,0,0,1,186.85,96.33Zm1.28,0-.3-.25a1.14,1.14,0,0,0,.51-.74l-.1,0a.4.4,0,0,1-.39-.41.43.43,0,0,1,.43-.43c.26,0,.5.21.5.61A1.52,1.52,0,0,1,188.13,96.33Z"/><path class="cls-1" d="M156.61,111.17l.41-.45a1.74,1.74,0,0,0,1.47.72,1.15,1.15,0,0,0,1.23-1.15,1.12,1.12,0,0,0-1.22-1.15,1.68,1.68,0,0,0-1.23.5l-.49-.17V106.6H160v.59h-2.6V109a1.86,1.86,0,0,1,1.25-.48,1.63,1.63,0,0,1,1.7,1.71,1.76,1.76,0,0,1-1.9,1.76A2.18,2.18,0,0,1,156.61,111.17Z"/><path class="cls-1" d="M161.94,110.58a1.59,1.59,0,0,1,1.27-1.4A1.4,1.4,0,0,1,162,107.9c0-1,.93-1.38,1.82-1.38s1.83.42,1.83,1.38a1.42,1.42,0,0,1-1.19,1.28,1.59,1.59,0,0,1,1.27,1.4c0,.9-.86,1.45-1.91,1.45S161.94,111.49,161.94,110.58Zm3.15-.07c0-.7-.91-1-1.24-1s-1.24.33-1.24,1,.58.93,1.24.93S165.09,111.08,165.09,110.51ZM165,108c0-.55-.52-.88-1.16-.88s-1.15.33-1.15.88.83.86,1.15.92S165,108.64,165,108Z"/><path class="cls-1" d="M167.66,108.33l-.31-.25a1.15,1.15,0,0,0,.52-.74l-.11,0a.39.39,0,0,1-.38-.41.42.42,0,0,1,.42-.43c.27,0,.51.21.51.61A1.52,1.52,0,0,1,167.66,108.33Zm1.28,0-.3-.25a1.14,1.14,0,0,0,.51-.74l-.1,0a.39.39,0,0,1-.39-.41.43.43,0,0,1,.43-.43c.26,0,.49.21.49.61A1.51,1.51,0,0,1,168.94,108.33Z"/><path class="cls-1" d="M171,110.26v-.53h1.92v.53Z"/><path class="cls-1" d="M176.58,109.27c0-1.44.67-2.75,2.17-2.75a1.79,1.79,0,0,1,1.47.64l-.33.49a1.37,1.37,0,0,0-1.14-.54c-1,0-1.5,1-1.5,2.09v.21a1.9,1.9,0,0,1,1.51-.83,1.61,1.61,0,0,1,1.74,1.7,1.75,1.75,0,0,1-1.86,1.75C177.15,112,176.58,110.72,176.58,109.27Zm3.25,1a1.09,1.09,0,0,0-1.22-1.15,1.62,1.62,0,0,0-1.34.79c.06.66.41,1.49,1.34,1.49A1.16,1.16,0,0,0,179.83,110.31Z"/><path class="cls-1" d="M183,111.93v-4.46l-.85.91-.4-.41,1.33-1.37h.58v5.33Z"/><path class="cls-1" d="M185.81,108.33l-.31-.25a1.15,1.15,0,0,0,.52-.74l-.11,0a.39.39,0,0,1-.38-.41.42.42,0,0,1,.42-.43c.28,0,.51.21.51.61A1.52,1.52,0,0,1,185.81,108.33Zm1.28,0-.3-.25a1.14,1.14,0,0,0,.51-.74l-.1,0a.4.4,0,0,1-.39-.41.43.43,0,0,1,.43-.43c.26,0,.5.21.5.61A1.52,1.52,0,0,1,187.09,108.33Z"/><path class="cls-1" d="M156.49,121.27c0-1.44.67-2.75,2.17-2.75a1.83,1.83,0,0,1,1.48.64l-.34.49a1.35,1.35,0,0,0-1.14-.54c-1,0-1.5,1-1.5,2.09v.21a1.9,1.9,0,0,1,1.51-.83,1.62,1.62,0,0,1,1.75,1.7,1.76,1.76,0,0,1-1.87,1.75C157.06,124,156.49,122.72,156.49,121.27Zm3.25,1a1.09,1.09,0,0,0-1.22-1.15,1.59,1.59,0,0,0-1.33.79,1.42,1.42,0,0,0,1.33,1.49A1.16,1.16,0,0,0,159.74,122.31Z"/><path class="cls-1" d="M162,123.93v-.53c1.92-1.51,3-2.4,3-3.32a1,1,0,0,0-1.12-1,1.78,1.78,0,0,0-1.45.67l-.41-.42a2.28,2.28,0,0,1,1.86-.84,1.62,1.62,0,0,1,1.79,1.56c0,1.09-1.1,2.08-2.59,3.26h2.61v.59Z"/><path class="cls-1" d="M167.71,120.33l-.3-.25a1.15,1.15,0,0,0,.52-.74l-.11,0a.4.4,0,0,1-.39-.41.43.43,0,0,1,.43-.43c.27,0,.5.21.5.61A1.52,1.52,0,0,1,167.71,120.33Zm1.28,0-.29-.25a1.18,1.18,0,0,0,.51-.74l-.11,0a.4.4,0,0,1-.39-.41.44.44,0,0,1,.44-.43c.26,0,.49.21.49.61A1.52,1.52,0,0,1,169,120.33Z"/><path class="cls-1" d="M171,122.26v-.53H173v.53Z"/><path class="cls-1" d="M176.79,121.27c0-1.44.68-2.75,2.18-2.75a1.81,1.81,0,0,1,1.47.64l-.34.49a1.35,1.35,0,0,0-1.13-.54c-1,0-1.5,1-1.5,2.09v.21a1.9,1.9,0,0,1,1.51-.83,1.61,1.61,0,0,1,1.74,1.7,1.75,1.75,0,0,1-1.86,1.75C177.36,124,176.79,122.72,176.79,121.27Zm3.26,1a1.1,1.1,0,0,0-1.23-1.15,1.61,1.61,0,0,0-1.33.79c.06.66.41,1.49,1.33,1.49A1.16,1.16,0,0,0,180.05,122.31Z"/><path class="cls-1" d="M182.36,123.17l.41-.45a1.74,1.74,0,0,0,1.47.72,1.15,1.15,0,0,0,1.23-1.15,1.12,1.12,0,0,0-1.22-1.15,1.68,1.68,0,0,0-1.23.5l-.49-.17V118.6h3.26v.59h-2.6V121a1.86,1.86,0,0,1,1.25-.48,1.63,1.63,0,0,1,1.7,1.71,1.76,1.76,0,0,1-1.9,1.76A2.18,2.18,0,0,1,182.36,123.17Z"/><path class="cls-1" d="M188,120.33l-.3-.25a1.19,1.19,0,0,0,.52-.74l-.11,0a.4.4,0,0,1-.39-.41.43.43,0,0,1,.43-.43c.27,0,.5.21.5.61A1.52,1.52,0,0,1,188,120.33Zm1.28,0-.29-.25a1.18,1.18,0,0,0,.51-.74l-.11,0A.4.4,0,0,1,189,119a.43.43,0,0,1,.43-.43c.27,0,.5.21.5.61A1.52,1.52,0,0,1,189.31,120.33Z"/><path class="cls-1" d="M7.77,8.24V2.47L5.52,8.24H4.77L2.52,2.47V8.24H.82v-8H3.2l2,5,1.94-5h2.4v8Z"/><path class="cls-1" d="M11.54,8.24v-8H17.2v1.5H13.25V3.42h3.87v1.5H13.25V6.74H17.2v1.5Z"/><path class="cls-1" d="M24.52,8.24,20.71,3V8.24H19v-8h1.75l3.7,5v-5h1.71v8Z"/><path class="cls-1" d="M28.79,3.57,28.13,3a2,2,0,0,0,.92-1.14.43.43,0,0,1-.23,0A.81.81,0,0,1,28,1.07,1,1,0,0,1,29,.12,1.1,1.1,0,0,1,30,1.34,2.76,2.76,0,0,1,28.79,3.57Z"/><path class="cls-1" d="M31.22,7.11l.94-1.33A3.5,3.5,0,0,0,34.7,6.87c.95,0,1.39-.42,1.39-.89,0-1.39-4.6-.42-4.6-3.43,0-1.33,1.15-2.43,3-2.43a4.46,4.46,0,0,1,3.12,1.11l-1,1.28a3.44,3.44,0,0,0-2.32-.88c-.72,0-1.13.31-1.13.79,0,1.26,4.59.41,4.59,3.4,0,1.46-1,2.56-3.2,2.56A4.61,4.61,0,0,1,31.22,7.11Z"/><path class="cls-1" d="M38.66,8.48,41.51,0h1.1L39.77,8.48Z"/><path class="cls-1" d="M43.87,5V.24H45.6V5a1.88,1.88,0,1,0,3.75,0V.24h1.74V5c0,2-1.17,3.34-3.61,3.34S43.87,7,43.87,5Z"/><path class="cls-1" d="M58.68,8.24,54.86,3V8.24h-1.7v-8h1.75l3.71,5v-5h1.7v8Z"/><path class="cls-1" d="M62.39,8.24v-8h1.7v8Z"/><path class="cls-1" d="M65.6,7.11l.94-1.33a3.5,3.5,0,0,0,2.54,1.09c1,0,1.39-.42,1.39-.89,0-1.39-4.6-.42-4.6-3.43,0-1.33,1.15-2.43,3-2.43A4.46,4.46,0,0,1,72,1.23l-1,1.28a3.44,3.44,0,0,0-2.32-.88c-.72,0-1.13.31-1.13.79,0,1.26,4.59.41,4.59,3.4,0,1.46-1,2.56-3.2,2.56A4.61,4.61,0,0,1,65.6,7.11Z"/><path class="cls-1" d="M73.83,8.24v-8H79.5v1.5h-4V3.42h3.87v1.5H75.54V6.74h4v1.5Z"/><path class="cls-1" d="M86.52,8.24l-2-2.93-2,2.93h-2l2.9-4.1L80.65.24h2L84.51,3,86.32.24h2.05L85.65,4.12l2.9,4.12Z"/><path class="cls-1" d="M156.32,6.15a2.37,2.37,0,0,1,2.49-2.42,2.12,2.12,0,0,1,1.95,1.14l-.85.42a1.27,1.27,0,0,0-1.1-.68,1.46,1.46,0,0,0-1.47,1.54,1.46,1.46,0,0,0,1.47,1.53,1.27,1.27,0,0,0,1.1-.68l.85.42a2.13,2.13,0,0,1-1.95,1.14A2.38,2.38,0,0,1,156.32,6.15Z"/><path class="cls-1" d="M164.83,8.48v-2h-2.21v2h-1V3.81h1V5.64h2.21V3.81h1V8.48Z"/><path class="cls-1" d="M167,8.48V3.81h3.31v.87H168v1h2.26v.88H168V7.6h2.31v.88Z"/><path class="cls-1" d="M171.06,7.82,171.6,7a2,2,0,0,0,1.49.64c.55,0,.81-.24.81-.52,0-.81-2.69-.24-2.69-2,0-.78.67-1.42,1.77-1.42a2.58,2.58,0,0,1,1.82.65l-.55.74a2,2,0,0,0-1.36-.51c-.42,0-.66.18-.66.46,0,.74,2.68.24,2.68,2,0,.86-.61,1.5-1.87,1.5A2.68,2.68,0,0,1,171.06,7.82Z"/><path class="cls-1" d="M176.84,8.48V4.68h-1.36V3.81h3.72v.87h-1.35v3.8Z"/><path class="cls-1" d="M183.28,8.48V4.68h-1.37V3.81h3.73v.87h-1.36v3.8Z"/><path class="cls-1" d="M186.16,6.15a2.44,2.44,0,0,1,4.88,0,2.44,2.44,0,0,1-4.88,0Zm3.86,0a1.42,1.42,0,1,0-2.84,0,1.42,1.42,0,1,0,2.84,0Z"/><path class="cls-1" d="M194.09,8.48V3.81h3.31v.87h-2.31v1h2.26v.88h-2.26V8.48Z"/><path class="cls-1" d="M198.36,8.48V3.81h1V8.48Z"/><path class="cls-1" d="M201.64,8.48V4.68h-1.37V3.81H204v.87h-1.36v3.8Z"/></g></g></svg>